<mxfile host="app.diagrams.net" agent="Mozilla/5.0 (Windows NT 10.0; Win64; x64) AppleWebKit/537.36 (KHTML, like Gecko) Chrome/130.0.0.0 Safari/537.36" version="24.8.6">
  <diagram id="C5RBs43oDa-KdzZeNtuy" name="Page-1">
    <mxGraphModel dx="1050" dy="522" grid="1" gridSize="10" guides="1" tooltips="1" connect="1" arrows="1" fold="1" page="1" pageScale="1" pageWidth="827" pageHeight="1169" math="0" shadow="0">
      <root>
        <mxCell id="WIyWlLk6GJQsqaUBKTNV-0" />
        <mxCell id="WIyWlLk6GJQsqaUBKTNV-1" parent="WIyWlLk6GJQsqaUBKTNV-0" />
        <mxCell id="i4--8Dgh0IIs8C6-UPYg-2" value="" style="edgeStyle=orthogonalEdgeStyle;rounded=0;orthogonalLoop=1;jettySize=auto;html=1;" edge="1" parent="WIyWlLk6GJQsqaUBKTNV-1" source="i4--8Dgh0IIs8C6-UPYg-0" target="i4--8Dgh0IIs8C6-UPYg-1">
          <mxGeometry relative="1" as="geometry" />
        </mxCell>
        <mxCell id="i4--8Dgh0IIs8C6-UPYg-0" value="START" style="ellipse;whiteSpace=wrap;html=1;" vertex="1" parent="WIyWlLk6GJQsqaUBKTNV-1">
          <mxGeometry x="354" y="40" width="120" height="80" as="geometry" />
        </mxCell>
        <mxCell id="i4--8Dgh0IIs8C6-UPYg-4" value="" style="edgeStyle=orthogonalEdgeStyle;rounded=0;orthogonalLoop=1;jettySize=auto;html=1;" edge="1" parent="WIyWlLk6GJQsqaUBKTNV-1" source="i4--8Dgh0IIs8C6-UPYg-1" target="i4--8Dgh0IIs8C6-UPYg-3">
          <mxGeometry relative="1" as="geometry" />
        </mxCell>
        <mxCell id="i4--8Dgh0IIs8C6-UPYg-1" value="Nhập số n" style="shape=parallelogram;perimeter=parallelogramPerimeter;whiteSpace=wrap;html=1;fixedSize=1;" vertex="1" parent="WIyWlLk6GJQsqaUBKTNV-1">
          <mxGeometry x="354" y="160" width="120" height="60" as="geometry" />
        </mxCell>
        <mxCell id="i4--8Dgh0IIs8C6-UPYg-6" value="" style="edgeStyle=orthogonalEdgeStyle;rounded=0;orthogonalLoop=1;jettySize=auto;html=1;" edge="1" parent="WIyWlLk6GJQsqaUBKTNV-1" source="i4--8Dgh0IIs8C6-UPYg-3" target="i4--8Dgh0IIs8C6-UPYg-5">
          <mxGeometry relative="1" as="geometry" />
        </mxCell>
        <mxCell id="i4--8Dgh0IIs8C6-UPYg-8" value="" style="edgeStyle=orthogonalEdgeStyle;rounded=0;orthogonalLoop=1;jettySize=auto;html=1;" edge="1" parent="WIyWlLk6GJQsqaUBKTNV-1" source="i4--8Dgh0IIs8C6-UPYg-3" target="i4--8Dgh0IIs8C6-UPYg-7">
          <mxGeometry relative="1" as="geometry" />
        </mxCell>
        <mxCell id="i4--8Dgh0IIs8C6-UPYg-10" value="" style="edgeStyle=orthogonalEdgeStyle;rounded=0;orthogonalLoop=1;jettySize=auto;html=1;" edge="1" parent="WIyWlLk6GJQsqaUBKTNV-1" source="i4--8Dgh0IIs8C6-UPYg-3" target="i4--8Dgh0IIs8C6-UPYg-9">
          <mxGeometry relative="1" as="geometry" />
        </mxCell>
        <mxCell id="i4--8Dgh0IIs8C6-UPYg-3" value="n%2=0" style="rhombus;whiteSpace=wrap;html=1;" vertex="1" parent="WIyWlLk6GJQsqaUBKTNV-1">
          <mxGeometry x="374" y="290" width="80" height="80" as="geometry" />
        </mxCell>
        <mxCell id="i4--8Dgh0IIs8C6-UPYg-12" value="" style="edgeStyle=orthogonalEdgeStyle;rounded=0;orthogonalLoop=1;jettySize=auto;html=1;" edge="1" parent="WIyWlLk6GJQsqaUBKTNV-1" source="i4--8Dgh0IIs8C6-UPYg-5" target="i4--8Dgh0IIs8C6-UPYg-11">
          <mxGeometry relative="1" as="geometry" />
        </mxCell>
        <mxCell id="i4--8Dgh0IIs8C6-UPYg-5" value="True&lt;div&gt;Chẵn&lt;/div&gt;" style="rhombus;whiteSpace=wrap;html=1;" vertex="1" parent="WIyWlLk6GJQsqaUBKTNV-1">
          <mxGeometry x="214" y="290" width="80" height="80" as="geometry" />
        </mxCell>
        <mxCell id="i4--8Dgh0IIs8C6-UPYg-14" value="" style="edgeStyle=orthogonalEdgeStyle;rounded=0;orthogonalLoop=1;jettySize=auto;html=1;" edge="1" parent="WIyWlLk6GJQsqaUBKTNV-1" source="i4--8Dgh0IIs8C6-UPYg-7" target="i4--8Dgh0IIs8C6-UPYg-13">
          <mxGeometry relative="1" as="geometry" />
        </mxCell>
        <mxCell id="i4--8Dgh0IIs8C6-UPYg-7" value="False&lt;div&gt;Lẻ&lt;/div&gt;" style="rhombus;whiteSpace=wrap;html=1;" vertex="1" parent="WIyWlLk6GJQsqaUBKTNV-1">
          <mxGeometry x="534" y="290" width="80" height="80" as="geometry" />
        </mxCell>
        <mxCell id="i4--8Dgh0IIs8C6-UPYg-18" value="" style="edgeStyle=orthogonalEdgeStyle;rounded=0;orthogonalLoop=1;jettySize=auto;html=1;" edge="1" parent="WIyWlLk6GJQsqaUBKTNV-1" source="i4--8Dgh0IIs8C6-UPYg-9" target="i4--8Dgh0IIs8C6-UPYg-17">
          <mxGeometry relative="1" as="geometry" />
        </mxCell>
        <mxCell id="i4--8Dgh0IIs8C6-UPYg-9" value="n là chẵn,lẻ" style="shape=parallelogram;perimeter=parallelogramPerimeter;whiteSpace=wrap;html=1;fixedSize=1;" vertex="1" parent="WIyWlLk6GJQsqaUBKTNV-1">
          <mxGeometry x="354" y="460" width="120" height="60" as="geometry" />
        </mxCell>
        <mxCell id="i4--8Dgh0IIs8C6-UPYg-16" value="" style="edgeStyle=orthogonalEdgeStyle;rounded=0;orthogonalLoop=1;jettySize=auto;html=1;" edge="1" parent="WIyWlLk6GJQsqaUBKTNV-1" source="i4--8Dgh0IIs8C6-UPYg-11" target="i4--8Dgh0IIs8C6-UPYg-9">
          <mxGeometry relative="1" as="geometry" />
        </mxCell>
        <mxCell id="i4--8Dgh0IIs8C6-UPYg-11" value="" style="shape=waypoint;sketch=0;size=6;pointerEvents=1;points=[];fillColor=default;resizable=0;rotatable=0;perimeter=centerPerimeter;snapToPoint=1;" vertex="1" parent="WIyWlLk6GJQsqaUBKTNV-1">
          <mxGeometry x="244" y="480" width="20" height="20" as="geometry" />
        </mxCell>
        <mxCell id="i4--8Dgh0IIs8C6-UPYg-15" value="" style="edgeStyle=orthogonalEdgeStyle;rounded=0;orthogonalLoop=1;jettySize=auto;html=1;" edge="1" parent="WIyWlLk6GJQsqaUBKTNV-1" source="i4--8Dgh0IIs8C6-UPYg-13" target="i4--8Dgh0IIs8C6-UPYg-9">
          <mxGeometry relative="1" as="geometry" />
        </mxCell>
        <mxCell id="i4--8Dgh0IIs8C6-UPYg-13" value="" style="shape=waypoint;sketch=0;size=6;pointerEvents=1;points=[];fillColor=default;resizable=0;rotatable=0;perimeter=centerPerimeter;snapToPoint=1;" vertex="1" parent="WIyWlLk6GJQsqaUBKTNV-1">
          <mxGeometry x="564" y="480" width="20" height="20" as="geometry" />
        </mxCell>
        <mxCell id="i4--8Dgh0IIs8C6-UPYg-17" value="" style="shape=waypoint;sketch=0;size=6;pointerEvents=1;points=[];fillColor=default;resizable=0;rotatable=0;perimeter=centerPerimeter;snapToPoint=1;" vertex="1" parent="WIyWlLk6GJQsqaUBKTNV-1">
          <mxGeometry x="404" y="620" width="20" height="20" as="geometry" />
        </mxCell>
        <mxCell id="i4--8Dgh0IIs8C6-UPYg-19" value="END" style="ellipse;whiteSpace=wrap;html=1;" vertex="1" parent="WIyWlLk6GJQsqaUBKTNV-1">
          <mxGeometry x="354" y="580" width="120" height="80" as="geometry" />
        </mxCell>
      </root>
    </mxGraphModel>
  </diagram>
</mxfile>
